# xmcd database file
#
# Track frame offsets:
# 180
# 20174
# 38097
# 57971
# 75080
# 86826
# 114631
# 123555
# 144339
# 172612
# 198720
# 227659
# 241149
#
# Disc length: 3430 seconds
# Submitted via: CD-Runner 10.6
#
# Revision: 1
# Processed by: cddbd v1.4b41PL1 Copyright (c) Steve Scherf et al.
#
DISCID=a10d640d
DTITLE=The Renee-Randall Blues Band - Sugar Coated Love
DYEAR=1900
DGENRE=
TTITLE0=I'm Gettin' 'Long Alright
TTITLE1=Sugar Coated Love
TTITLE2=Call My Job
TTITLE3=So Called Friends
TTITLE4=Down Girl Down
TTITLE5=Come On In This House - Mercy, Mercy
TTITLE6=Just A Little Bit
TTITLE7=Drinking Beer
TTITLE8=Never Make A Move Too Soon
TTITLE9=She's Tuff
TTITLE10=In My Girlish Days
TTITLE11=Just A Little Love
TTITLE12=No Woman - No Man
EXTD=Produced by Jeff Kolarik
EXTD=\nRecording and Mixing Engineer, Mike Turner
EXTD=\nRecorded Spring 1996
EXTD=\nTurner Studios, Woburn, MA
EXTT0=
EXTT1=
EXTT2=
EXTT3=
EXTT4=
EXTT5=
EXTT6=
EXTT7=
EXTT8=
EXTT9=
EXTT10=
EXTT11=
EXTT12=
PLAYORDER=
